<svg width="56" height="56" viewBox="0 0 56 56" fill="none" xmlns="http://www.w3.org/2000/svg">
<path d="M0 28C0 12.536 12.536 0 28 0C43.464 0 56 12.536 56 28C56 43.464 43.464 56 28 56C12.536 56 0 43.464 0 28Z" fill="#EEEDFC"/>
<path d="M39.0832 42.25V39.0833C39.0832 37.4036 38.4159 35.7927 37.2282 34.605C36.0404 33.4173 34.4295 32.75 32.7498 32.75H23.2498C21.5701 32.75 19.9592 33.4173 18.7715 34.605C17.5838 35.7927 16.9165 37.4036 16.9165 39.0833V42.25" stroke="#736BEA" stroke-width="2.5" stroke-linecap="round" stroke-linejoin="round"/>
<path d="M27.9998 26.4167C31.4976 26.4167 34.3332 23.5811 34.3332 20.0833C34.3332 16.5855 31.4976 13.75 27.9998 13.75C24.502 13.75 21.6665 16.5855 21.6665 20.0833C21.6665 23.5811 24.502 26.4167 27.9998 26.4167Z" stroke="#736BEA" stroke-width="2.5" stroke-linecap="round" stroke-linejoin="round"/>
<circle cx="48.5" cy="48.5" r="6.5" fill="#F4A316" stroke="white" stroke-width="2"/>
</svg>
