<svg width="60" height="60" viewBox="0 0 60 60" fill="none" xmlns="http://www.w3.org/2000/svg">
<rect width="60" height="60" rx="14" fill="#4F46E5"/>
<path d="M29.1282 34.5001L24.6667 29.8848M29.1282 34.5001C31.2056 33.6828 33.1984 32.652 35.0769 31.4232M29.1282 34.5001V42.1923C29.1282 42.1923 33.6344 41.3462 35.0769 39.1155C36.6831 36.6232 35.0769 31.4232 35.0769 31.4232M24.6667 29.8848C25.4581 27.7609 26.4546 25.725 27.641 23.808C29.3739 20.9418 31.7867 18.5819 34.6501 16.9528C37.5135 15.3237 40.7322 14.4794 44 14.5004C44 18.6849 42.84 26.0387 35.0769 31.4232M24.6667 29.8848L17.2308 29.8848C17.2308 29.8848 18.0487 25.2233 20.2051 23.731C22.6144 22.0695 27.641 23.731 27.641 23.731M17.9744 36.8078C15.7436 38.7462 15 44.5 15 44.5C15 44.5 20.5621 43.7308 22.4359 41.4231C23.4918 40.1308 23.4769 38.1462 22.3021 36.9463C21.724 36.3755 20.9625 36.0457 20.1638 36.0201C19.3651 35.9946 18.5854 36.2751 17.9744 36.8078Z" stroke="white" stroke-width="3" stroke-linecap="round" stroke-linejoin="round"/>
</svg>
