<svg width="12" height="12" viewBox="0 0 12 12" fill="none" xmlns="http://www.w3.org/2000/svg">
<path d="M6 3C5.62916 3 5.26665 3.10997 4.95831 3.31599C4.64996 3.52202 4.40964 3.81486 4.26773 4.15747C4.12581 4.50008 4.08868 4.87708 4.16103 5.24079C4.23337 5.60451 4.41195 5.9386 4.67417 6.20083C4.9364 6.46305 5.27049 6.64163 5.63421 6.71397C5.99792 6.78632 6.37492 6.74919 6.71753 6.60727C7.06014 6.46536 7.35298 6.22504 7.55901 5.91669C7.76503 5.60835 7.875 5.24584 7.875 4.875C7.875 4.37772 7.67746 3.90081 7.32583 3.54917C6.97419 3.19754 6.49728 3 6 3ZM6 6C5.7775 6 5.55999 5.93402 5.37498 5.8104C5.18998 5.68679 5.04578 5.51109 4.96064 5.30552C4.87549 5.09995 4.85321 4.87375 4.89662 4.65552C4.94002 4.43729 5.04717 4.23684 5.2045 4.0795C5.36184 3.92217 5.56229 3.81502 5.78052 3.77162C5.99875 3.72821 6.22495 3.75049 6.43052 3.83564C6.63609 3.92078 6.81179 4.06498 6.9354 4.24998C7.05902 4.43499 7.125 4.6525 7.125 4.875C7.125 5.17337 7.00647 5.45952 6.7955 5.6705C6.58452 5.88147 6.29837 6 6 6ZM6 0.75C4.90636 0.751241 3.85787 1.18624 3.08455 1.95955C2.31124 2.73287 1.87624 3.78136 1.875 4.875C1.875 6.34688 2.55516 7.90688 3.84375 9.38672C4.42276 10.0554 5.07443 10.6576 5.78672 11.182C5.84977 11.2262 5.92489 11.2499 6.00187 11.2499C6.07886 11.2499 6.15398 11.2262 6.21703 11.182C6.92801 10.6574 7.57841 10.0552 8.15625 9.38672C9.44297 7.90688 10.125 6.34688 10.125 4.875C10.1238 3.78136 9.68876 2.73287 8.91545 1.95955C8.14213 1.18624 7.09364 0.751241 6 0.75ZM6 10.4062C5.22516 9.79688 2.625 7.55859 2.625 4.875C2.625 3.97989 2.98058 3.12145 3.61351 2.48851C4.24645 1.85558 5.10489 1.5 6 1.5C6.89511 1.5 7.75355 1.85558 8.38649 2.48851C9.01942 3.12145 9.375 3.97989 9.375 4.875C9.375 7.55766 6.77484 9.79688 6 10.4062Z" fill="#525252"/>
</svg>
