<svg width="54" height="54" viewBox="0 0 54 54" fill="none" xmlns="http://www.w3.org/2000/svg">
<g opacity="0.7">
<path d="M27 5.0625C22.6612 5.0625 18.4198 6.34911 14.8122 8.75964C11.2046 11.1702 8.3928 14.5963 6.7324 18.6049C5.07201 22.6134 4.63757 27.0243 5.48403 31.2798C6.3305 35.5353 8.41984 39.4441 11.4879 42.5122C14.5559 45.5802 18.4648 47.6695 22.7202 48.516C26.9757 49.3624 31.3866 48.928 35.3951 47.2676C39.4037 45.6072 42.8298 42.7954 45.2404 39.1878C47.6509 35.5802 48.9375 31.3388 48.9375 27C48.9314 21.1837 46.6181 15.6074 42.5054 11.4946C38.3926 7.38188 32.8163 5.06864 27 5.0625ZM27 45.5625C23.3287 45.5625 19.7398 44.4738 16.6872 42.4342C13.6346 40.3945 11.2554 37.4954 9.8505 34.1036C8.44554 30.7117 8.07794 26.9794 8.79418 23.3786C9.51042 19.7779 11.2783 16.4703 13.8743 13.8743C16.4704 11.2783 19.7779 9.51041 23.3786 8.79417C26.9794 8.07793 30.7117 8.44553 34.1036 9.85049C37.4954 11.2554 40.3945 13.6346 42.4342 16.6872C44.4738 19.7398 45.5625 23.3287 45.5625 27C45.5569 31.9214 43.5994 36.6396 40.1195 40.1195C36.6396 43.5994 31.9214 45.5569 27 45.5625ZM31.5689 19.7564L24.3232 27L31.5689 34.2436C31.7257 34.4004 31.8501 34.5865 31.9349 34.7914C32.0198 34.9962 32.0634 35.2158 32.0634 35.4375C32.0634 35.6592 32.0198 35.8788 31.9349 36.0836C31.8501 36.2885 31.7257 36.4746 31.5689 36.6314C31.4121 36.7882 31.226 36.9126 31.0211 36.9974C30.8163 37.0823 30.5967 37.1259 30.375 37.1259C30.1533 37.1259 29.9337 37.0823 29.7289 36.9974C29.524 36.9126 29.3379 36.7882 29.1811 36.6314L20.7436 28.1939C20.5867 28.0372 20.4622 27.8511 20.3773 27.6462C20.2924 27.4414 20.2487 27.2218 20.2487 27C20.2487 26.7782 20.2924 26.5586 20.3773 26.3538C20.4622 26.1489 20.5867 25.9628 20.7436 25.8061L29.1811 17.3686C29.3379 17.2118 29.524 17.0874 29.7289 17.0026C29.9337 16.9177 30.1533 16.8741 30.375 16.8741C30.5967 16.8741 30.8163 16.9177 31.0211 17.0026C31.226 17.0874 31.4121 17.2118 31.5689 17.3686C31.7257 17.5254 31.8501 17.7115 31.9349 17.9164C32.0198 18.1212 32.0634 18.3408 32.0634 18.5625C32.0634 18.7842 32.0198 19.0038 31.9349 19.2086C31.8501 19.4135 31.7257 19.5996 31.5689 19.7564Z" fill="#C1BCBC" fill-opacity="0.5"/>
</g>
</svg>
