<svg width="54" height="54" viewBox="0 0 54 54" fill="none" xmlns="http://www.w3.org/2000/svg">
<path opacity="0.7" d="M27 5.0625C22.6612 5.0625 18.4198 6.34911 14.8122 8.75964C11.2046 11.1702 8.3928 14.5963 6.7324 18.6049C5.07201 22.6134 4.63757 27.0243 5.48403 31.2798C6.3305 35.5353 8.41984 39.4441 11.4879 42.5122C14.5559 45.5802 18.4648 47.6695 22.7202 48.516C26.9757 49.3624 31.3866 48.928 35.3951 47.2676C39.4037 45.6072 42.8298 42.7954 45.2404 39.1878C47.6509 35.5802 48.9375 31.3388 48.9375 27C48.9314 21.1837 46.6181 15.6074 42.5054 11.4946C38.3926 7.38188 32.8163 5.06864 27 5.0625ZM27 45.5625C23.3287 45.5625 19.7398 44.4738 16.6872 42.4342C13.6346 40.3945 11.2554 37.4954 9.8505 34.1036C8.44554 30.7117 8.07794 26.9794 8.79418 23.3786C9.51042 19.7779 11.2783 16.4703 13.8743 13.8743C16.4704 11.2783 19.7779 9.51041 23.3786 8.79417C26.9794 8.07793 30.7117 8.44553 34.1036 9.85049C37.4954 11.2554 40.3945 13.6346 42.4342 16.6872C44.4738 19.7398 45.5625 23.3287 45.5625 27C45.5569 31.9214 43.5994 36.6396 40.1195 40.1195C36.6396 43.5994 31.9214 45.5569 27 45.5625ZM33.2564 25.8061C33.4133 25.9628 33.5378 26.1489 33.6227 26.3538C33.7076 26.5586 33.7513 26.7782 33.7513 27C33.7513 27.2218 33.7076 27.4414 33.6227 27.6462C33.5378 27.8511 33.4133 28.0372 33.2564 28.1939L24.8189 36.6314C24.6621 36.7882 24.476 36.9126 24.2711 36.9974C24.0663 37.0823 23.8467 37.1259 23.625 37.1259C23.4033 37.1259 23.1837 37.0823 22.9789 36.9974C22.774 36.9126 22.5879 36.7882 22.4311 36.6314C22.2743 36.4746 22.1499 36.2885 22.0651 36.0836C21.9802 35.8788 21.9366 35.6592 21.9366 35.4375C21.9366 35.2158 21.9802 34.9962 22.0651 34.7914C22.1499 34.5865 22.2743 34.4004 22.4311 34.2436L29.6768 27L22.4311 19.7564C22.1145 19.4398 21.9366 19.0103 21.9366 18.5625C21.9366 18.1147 22.1145 17.6852 22.4311 17.3686C22.7477 17.0519 23.1772 16.8741 23.625 16.8741C24.0728 16.8741 24.5023 17.0519 24.8189 17.3686L33.2564 25.8061Z" fill="white"/>
</svg>
