<svg width="22" height="22" viewBox="0 0 22 22" fill="none" xmlns="http://www.w3.org/2000/svg">
<path d="M5.55001 8.49164C5.49331 8.44294 5.4266 8.40487 5.35371 8.3796C5.28081 8.35432 5.20315 8.34235 5.12516 8.34435C5.04717 8.34636 4.97038 8.3623 4.89918 8.39128C4.82797 8.42026 4.76374 8.4617 4.71015 8.51324C4.65657 8.56478 4.61467 8.6254 4.58687 8.69166C4.55906 8.75791 4.54588 8.82849 4.54809 8.89937C4.5503 8.97025 4.56784 9.04005 4.59972 9.10476C4.63161 9.16948 4.6772 9.22786 4.73391 9.27656L10.0796 13.8651C10.1899 13.9599 10.3359 14.0127 10.4876 14.0127C10.6394 14.0127 10.7854 13.9599 10.8957 13.8651L16.2419 9.27656C16.2999 9.22818 16.3467 9.16982 16.3796 9.10486C16.4125 9.0399 16.4309 8.96965 16.4337 8.89818C16.4365 8.82671 16.4236 8.75544 16.3959 8.68853C16.3681 8.62161 16.326 8.56038 16.272 8.50838C16.2179 8.45638 16.1531 8.41466 16.0812 8.38564C16.0093 8.35661 15.9317 8.34086 15.8531 8.33931C15.7744 8.33775 15.6962 8.35041 15.6229 8.37657C15.5497 8.40272 15.4829 8.44183 15.4264 8.49164L10.4876 12.7304L5.55001 8.49164Z" fill="#ADADAD"/>
</svg>
