<svg width="22" height="22" viewBox="0 0 22 22" fill="none" xmlns="http://www.w3.org/2000/svg">
<path d="M16.0976 8.066L9.05794 15.3988C9.01707 15.4414 8.96855 15.4752 8.91514 15.4983C8.86172 15.5213 8.80447 15.5332 8.74665 15.5332C8.68883 15.5332 8.63158 15.5213 8.57816 15.4983C8.52475 15.4752 8.47623 15.4414 8.43536 15.3988L5.3555 12.1907C5.27294 12.1047 5.22656 11.9881 5.22656 11.8664C5.22656 11.7448 5.27294 11.6282 5.3555 11.5422C5.43806 11.4562 5.55003 11.4079 5.66679 11.4079C5.78354 11.4079 5.89552 11.4562 5.97807 11.5422L8.74665 14.4266L15.4751 7.41751C15.5576 7.33151 15.6696 7.2832 15.7863 7.2832C15.9031 7.2832 16.0151 7.33151 16.0976 7.41751C16.1802 7.50351 16.2266 7.62014 16.2266 7.74176C16.2266 7.86337 16.1802 7.98001 16.0976 8.066Z" fill="#ADADAD"/>
</svg>
