<svg width="24" height="24" viewBox="0 0 24 24" fill="none" xmlns="http://www.w3.org/2000/svg">
<path d="M10.9922 14.8053C11.9974 14.1361 12.7605 13.1612 13.1688 12.0248C13.577 10.8883 13.6087 9.65061 13.2592 8.49474C12.9096 7.33887 12.1973 6.32618 11.2277 5.60642C10.2581 4.88666 9.08257 4.49805 7.875 4.49805C6.66743 4.49805 5.49191 4.88666 4.52229 5.60642C3.55266 6.32618 2.8404 7.33887 2.49084 8.49474C2.14127 9.65061 2.17296 10.8883 2.58122 12.0248C2.98947 13.1612 3.75262 14.1361 4.75781 14.8053C2.93952 15.4755 1.38666 16.7156 0.330938 18.3406C0.275453 18.4231 0.236913 18.5158 0.217558 18.6133C0.198203 18.7108 0.19842 18.8111 0.218196 18.9085C0.237971 19.0059 0.276911 19.0984 0.332752 19.1807C0.388593 19.2629 0.460221 19.3332 0.543472 19.3875C0.626723 19.4418 0.719937 19.479 0.817696 19.497C0.915455 19.5149 1.01581 19.5133 1.11292 19.4921C1.21004 19.4709 1.30197 19.4307 1.38339 19.3737C1.46481 19.3167 1.53409 19.244 1.58719 19.16C2.26818 18.1126 3.20002 17.2519 4.2981 16.6561C5.39617 16.0603 6.62569 15.7482 7.875 15.7482C9.12431 15.7482 10.3538 16.0603 11.4519 16.6561C12.55 17.2519 13.4818 18.1126 14.1628 19.16C14.2728 19.3235 14.4427 19.4371 14.6359 19.4763C14.829 19.5156 15.0298 19.4772 15.1948 19.3695C15.3599 19.2619 15.4759 19.0936 15.5179 18.9011C15.5598 18.7085 15.5243 18.5072 15.4191 18.3406C14.3633 16.7156 12.8105 15.4755 10.9922 14.8053ZM3.75 10.1253C3.75 9.30948 3.99193 8.51195 4.44519 7.8336C4.89845 7.15525 5.54269 6.62654 6.29643 6.31433C7.05018 6.00212 7.87958 5.92043 8.67975 6.07959C9.47992 6.23875 10.2149 6.63162 10.7918 7.20851C11.3687 7.78541 11.7616 8.52041 11.9207 9.32058C12.0799 10.1208 11.9982 10.9502 11.686 11.7039C11.3738 12.4576 10.8451 13.1019 10.1667 13.5551C9.48838 14.0084 8.69085 14.2503 7.875 14.2503C6.78136 14.2491 5.73287 13.8141 4.95956 13.0408C4.18624 12.2675 3.75124 11.219 3.75 10.1253ZM23.4506 19.3785C23.284 19.4871 23.0811 19.5251 22.8865 19.4841C22.6919 19.4432 22.5215 19.3266 22.4128 19.16C21.7326 18.112 20.8009 17.2509 19.7026 16.6554C18.6043 16.0598 17.3744 15.7487 16.125 15.7503C15.9261 15.7503 15.7353 15.6713 15.5947 15.5307C15.454 15.39 15.375 15.1992 15.375 15.0003C15.375 14.8014 15.454 14.6107 15.5947 14.47C15.7353 14.3293 15.9261 14.2503 16.125 14.2503C16.7325 14.2498 17.3323 14.115 17.8817 13.8557C18.431 13.5965 18.9164 13.2191 19.303 12.7505C19.6896 12.2819 19.9679 11.7337 20.1181 11.1451C20.2682 10.5565 20.2866 9.94198 20.1717 9.34547C20.0569 8.74895 19.8117 8.18516 19.4537 7.69439C19.0957 7.20361 18.6337 6.79796 18.1008 6.50642C17.5679 6.21488 16.9771 6.04465 16.3707 6.00789C15.7644 5.97113 15.1574 6.06875 14.5931 6.29377C14.5011 6.33354 14.4021 6.35447 14.3019 6.35531C14.2016 6.35616 14.1023 6.33691 14.0096 6.2987C13.9169 6.26049 13.8329 6.20409 13.7624 6.13284C13.6919 6.0616 13.6364 5.97694 13.5992 5.88388C13.5619 5.79082 13.5437 5.69124 13.5457 5.59103C13.5476 5.49082 13.5696 5.39201 13.6103 5.30044C13.651 5.20887 13.7097 5.12639 13.7829 5.05788C13.8561 4.98938 13.9422 4.93623 14.0363 4.90158C15.3276 4.38656 16.764 4.36803 18.0682 4.84955C19.3724 5.33108 20.4521 6.27854 21.099 7.50916C21.7459 8.73978 21.9141 10.1664 21.5712 11.5137C21.2283 12.861 20.3986 14.0336 19.2422 14.8053C21.0605 15.4755 22.6133 16.7156 23.6691 18.3406C23.7777 18.5072 23.8157 18.7102 23.7748 18.9048C23.7338 19.0994 23.6172 19.2698 23.4506 19.3785Z" fill="#525252"/>
</svg>
