<svg width="24" height="24" viewBox="0 0 24 24" fill="none" xmlns="http://www.w3.org/2000/svg">
<path d="M12 4C10.4177 4 8.871 4.46919 7.5554 5.34824C6.23981 6.22729 5.21443 7.47672 4.60893 8.93853C4.00343 10.4003 3.845 12.0089 4.15368 13.5607C4.46236 15.1126 5.22429 16.538 6.34311 17.6569C7.46193 18.7757 8.88739 19.5376 10.4392 19.8463C11.9911 20.155 13.5996 19.9965 15.0614 19.391C16.5232 18.7855 17.7727 17.7602 18.6517 16.4446C19.5308 15.129 20 13.5822 20 12C19.9977 9.87895 19.1541 7.84542 17.6543 6.34562C16.1545 4.84581 14.121 4.00224 12 4ZM12 18.7692C10.6611 18.7692 9.35238 18.3722 8.23918 17.6284C7.12599 16.8846 6.25836 15.8274 5.74601 14.5905C5.23366 13.3536 5.09961 11.9925 5.3608 10.6794C5.622 9.36629 6.2667 8.16012 7.2134 7.21343C8.16009 6.26674 9.36625 5.62203 10.6794 5.36084C11.9925 5.09965 13.3535 5.2337 14.5904 5.74605C15.8274 6.25839 16.8846 7.12602 17.6284 8.23922C18.3722 9.35241 18.7692 10.6612 18.7692 12C18.7672 13.7947 18.0533 15.5153 16.7843 16.7843C15.5152 18.0534 13.7946 18.7672 12 18.7692Z" fill="#4F46E5"/>
</svg>
