<svg width="94" height="94" viewBox="0 0 94 94" fill="none" xmlns="http://www.w3.org/2000/svg">
<path d="M15.7101 81.9277H78.2899C79.3063 81.9276 80.3053 81.6637 81.1892 81.1619C82.0731 80.6601 82.8117 79.9376 83.3328 79.065C83.854 78.1924 84.1398 77.1995 84.1624 76.1833C84.185 75.1672 83.9436 74.1625 83.4617 73.2676L52.1737 15.1602C49.954 11.0404 44.046 11.0404 41.8264 15.1602L10.5383 73.2676C10.0565 74.1625 9.81504 75.1672 9.83763 76.1833C9.86023 77.1995 10.1461 78.1924 10.6672 79.065C11.1883 79.9376 11.9269 80.6601 12.8109 81.1619C13.6948 81.6637 14.6937 81.9276 15.7101 81.9277Z" stroke="#F4A316" stroke-width="4" stroke-linecap="round" stroke-linejoin="round"/>
<path d="M45.9462 35.8717L47 58.2702L48.052 35.8809C48.0585 35.7378 48.0358 35.5948 47.9851 35.4608C47.9345 35.3268 47.8571 35.2044 47.7576 35.1013C47.6581 34.9982 47.5386 34.9165 47.4065 34.8611C47.2743 34.8058 47.1323 34.778 46.989 34.7793C46.8483 34.7807 46.7092 34.8103 46.58 34.8663C46.4509 34.9223 46.3343 35.0036 46.2371 35.1055C46.1399 35.2073 46.064 35.3275 46.0141 35.4592C45.9641 35.5908 45.941 35.7311 45.9462 35.8717Z" stroke="#F4A316" stroke-width="4" stroke-linecap="round" stroke-linejoin="round"/>
<path d="M47 72.9336C46.2738 72.9336 45.5639 72.7182 44.96 72.3148C44.3562 71.9113 43.8855 71.3378 43.6076 70.6669C43.3297 69.9959 43.257 69.2576 43.3987 68.5454C43.5404 67.8331 43.8901 67.1788 44.4036 66.6653C44.9171 66.1518 45.5714 65.8021 46.2837 65.6604C46.9959 65.5187 47.7342 65.5914 48.4052 65.8693C49.0761 66.1473 49.6496 66.6179 50.0531 67.2217C50.4565 67.8256 50.6719 68.5355 50.6719 69.2617C50.6719 70.2356 50.285 71.1695 49.5964 71.8581C48.9078 72.5467 47.9738 72.9336 47 72.9336Z" fill="#F4A316"/>
</svg>
